<mxfile host="app.diagrams.net" agent="Mozilla/5.0 (Windows NT 10.0; Win64; x64) AppleWebKit/537.36 (KHTML, like Gecko) Chrome/129.0.0.0 Safari/537.36" version="24.7.17">
  <diagram name="PÃ¡gina-1" id="Z5GL8oSzEE1CzC3Kvjkq">
    <mxGraphModel grid="1" page="1" gridSize="10" guides="1" tooltips="1" connect="1" arrows="1" fold="1" pageScale="1" pageWidth="827" pageHeight="1169" math="0" shadow="0">
      <root>
        <mxCell id="0" />
        <mxCell id="1" parent="0" />
        <mxCell id="BF2qxbi9eYkXB8UrA0qM-24" value="AWS Cloud" style="sketch=0;outlineConnect=0;gradientColor=none;html=1;whiteSpace=wrap;fontSize=12;fontStyle=0;shape=mxgraph.aws4.group;grIcon=mxgraph.aws4.group_aws_cloud;strokeColor=#AAB7B8;fillColor=none;verticalAlign=top;align=left;spacingLeft=30;fontColor=#AAB7B8;dashed=0;" vertex="1" parent="1">
          <mxGeometry x="200" y="230" width="1410" height="670" as="geometry" />
        </mxCell>
        <mxCell id="BF2qxbi9eYkXB8UrA0qM-6" style="edgeStyle=orthogonalEdgeStyle;rounded=0;orthogonalLoop=1;jettySize=auto;html=1;" edge="1" parent="1" source="BF2qxbi9eYkXB8UrA0qM-1" target="BF2qxbi9eYkXB8UrA0qM-2">
          <mxGeometry relative="1" as="geometry" />
        </mxCell>
        <mxCell id="BF2qxbi9eYkXB8UrA0qM-1" value="" style="aspect=fixed;sketch=0;html=1;dashed=0;whitespace=wrap;verticalLabelPosition=bottom;verticalAlign=top;fillColor=#2875E2;strokeColor=#ffffff;points=[[0.005,0.63,0],[0.1,0.2,0],[0.9,0.2,0],[0.5,0,0],[0.995,0.63,0],[0.72,0.99,0],[0.5,1,0],[0.28,0.99,0]];shape=mxgraph.kubernetes.icon2;kubernetesLabel=1;prIcon=api" vertex="1" parent="1">
          <mxGeometry x="40" y="290" width="50" height="48" as="geometry" />
        </mxCell>
        <mxCell id="BF2qxbi9eYkXB8UrA0qM-7" style="edgeStyle=orthogonalEdgeStyle;rounded=0;orthogonalLoop=1;jettySize=auto;html=1;" edge="1" parent="1" source="BF2qxbi9eYkXB8UrA0qM-2" target="BF2qxbi9eYkXB8UrA0qM-3">
          <mxGeometry relative="1" as="geometry" />
        </mxCell>
        <mxCell id="BF2qxbi9eYkXB8UrA0qM-2" value="" style="sketch=0;points=[[0,0,0],[0.25,0,0],[0.5,0,0],[0.75,0,0],[1,0,0],[0,1,0],[0.25,1,0],[0.5,1,0],[0.75,1,0],[1,1,0],[0,0.25,0],[0,0.5,0],[0,0.75,0],[1,0.25,0],[1,0.5,0],[1,0.75,0]];outlineConnect=0;fontColor=#232F3E;fillColor=#8C4FFF;strokeColor=#ffffff;dashed=0;verticalLabelPosition=bottom;verticalAlign=top;align=center;html=1;fontSize=12;fontStyle=0;aspect=fixed;shape=mxgraph.aws4.resourceIcon;resIcon=mxgraph.aws4.api_gateway;" vertex="1" parent="1">
          <mxGeometry x="210" y="275" width="78" height="78" as="geometry" />
        </mxCell>
        <mxCell id="BF2qxbi9eYkXB8UrA0qM-8" style="edgeStyle=orthogonalEdgeStyle;rounded=0;orthogonalLoop=1;jettySize=auto;html=1;" edge="1" parent="1" source="BF2qxbi9eYkXB8UrA0qM-3" target="BF2qxbi9eYkXB8UrA0qM-4">
          <mxGeometry relative="1" as="geometry" />
        </mxCell>
        <mxCell id="BF2qxbi9eYkXB8UrA0qM-3" value="" style="sketch=0;points=[[0,0,0],[0.25,0,0],[0.5,0,0],[0.75,0,0],[1,0,0],[0,1,0],[0.25,1,0],[0.5,1,0],[0.75,1,0],[1,1,0],[0,0.25,0],[0,0.5,0],[0,0.75,0],[1,0.25,0],[1,0.5,0],[1,0.75,0]];outlineConnect=0;fontColor=#232F3E;fillColor=#ED7100;strokeColor=#ffffff;dashed=0;verticalLabelPosition=bottom;verticalAlign=top;align=center;html=1;fontSize=12;fontStyle=0;aspect=fixed;shape=mxgraph.aws4.resourceIcon;resIcon=mxgraph.aws4.lambda;" vertex="1" parent="1">
          <mxGeometry x="390" y="275" width="78" height="78" as="geometry" />
        </mxCell>
        <mxCell id="BF2qxbi9eYkXB8UrA0qM-33" style="edgeStyle=orthogonalEdgeStyle;rounded=0;orthogonalLoop=1;jettySize=auto;html=1;" edge="1" parent="1" source="BF2qxbi9eYkXB8UrA0qM-4" target="BF2qxbi9eYkXB8UrA0qM-11">
          <mxGeometry relative="1" as="geometry" />
        </mxCell>
        <mxCell id="BF2qxbi9eYkXB8UrA0qM-4" value="" style="sketch=0;points=[[0,0,0],[0.25,0,0],[0.5,0,0],[0.75,0,0],[1,0,0],[0,1,0],[0.25,1,0],[0.5,1,0],[0.75,1,0],[1,1,0],[0,0.25,0],[0,0.5,0],[0,0.75,0],[1,0.25,0],[1,0.5,0],[1,0.75,0]];outlineConnect=0;fontColor=#232F3E;fillColor=#E7157B;strokeColor=#ffffff;dashed=0;verticalLabelPosition=bottom;verticalAlign=top;align=center;html=1;fontSize=12;fontStyle=0;aspect=fixed;shape=mxgraph.aws4.resourceIcon;resIcon=mxgraph.aws4.sqs;" vertex="1" parent="1">
          <mxGeometry x="390" y="430" width="78" height="78" as="geometry" />
        </mxCell>
        <mxCell id="BF2qxbi9eYkXB8UrA0qM-10" style="edgeStyle=orthogonalEdgeStyle;rounded=0;orthogonalLoop=1;jettySize=auto;html=1;" edge="1" parent="1" source="BF2qxbi9eYkXB8UrA0qM-9" target="BF2qxbi9eYkXB8UrA0qM-4">
          <mxGeometry relative="1" as="geometry" />
        </mxCell>
        <mxCell id="BF2qxbi9eYkXB8UrA0qM-16" style="edgeStyle=orthogonalEdgeStyle;rounded=0;orthogonalLoop=1;jettySize=auto;html=1;" edge="1" parent="1" source="BF2qxbi9eYkXB8UrA0qM-9" target="BF2qxbi9eYkXB8UrA0qM-15">
          <mxGeometry relative="1" as="geometry" />
        </mxCell>
        <mxCell id="BF2qxbi9eYkXB8UrA0qM-9" value="" style="sketch=0;points=[[0,0,0],[0.25,0,0],[0.5,0,0],[0.75,0,0],[1,0,0],[0,1,0],[0.25,1,0],[0.5,1,0],[0.75,1,0],[1,1,0],[0,0.25,0],[0,0.5,0],[0,0.75,0],[1,0.25,0],[1,0.5,0],[1,0.75,0]];outlineConnect=0;fontColor=#232F3E;fillColor=#ED7100;strokeColor=#ffffff;dashed=0;verticalLabelPosition=bottom;verticalAlign=top;align=center;html=1;fontSize=12;fontStyle=0;aspect=fixed;shape=mxgraph.aws4.resourceIcon;resIcon=mxgraph.aws4.lambda;" vertex="1" parent="1">
          <mxGeometry x="550" y="430" width="78" height="78" as="geometry" />
        </mxCell>
        <mxCell id="BF2qxbi9eYkXB8UrA0qM-11" value="" style="sketch=0;points=[[0,0,0],[0.25,0,0],[0.5,0,0],[0.75,0,0],[1,0,0],[0,1,0],[0.25,1,0],[0.5,1,0],[0.75,1,0],[1,1,0],[0,0.25,0],[0,0.5,0],[0,0.75,0],[1,0.25,0],[1,0.5,0],[1,0.75,0]];outlineConnect=0;fontColor=#232F3E;fillColor=#E7157B;strokeColor=#ffffff;dashed=0;verticalLabelPosition=bottom;verticalAlign=top;align=center;html=1;fontSize=12;fontStyle=0;aspect=fixed;shape=mxgraph.aws4.resourceIcon;resIcon=mxgraph.aws4.sqs;" vertex="1" parent="1">
          <mxGeometry x="390" y="560" width="78" height="78" as="geometry" />
        </mxCell>
        <mxCell id="BF2qxbi9eYkXB8UrA0qM-13" value="" style="sketch=0;points=[[0,0,0],[0.25,0,0],[0.5,0,0],[0.75,0,0],[1,0,0],[0,1,0],[0.25,1,0],[0.5,1,0],[0.75,1,0],[1,1,0],[0,0.25,0],[0,0.5,0],[0,0.75,0],[1,0.25,0],[1,0.5,0],[1,0.75,0]];outlineConnect=0;fontColor=#232F3E;fillColor=#E7157B;strokeColor=#ffffff;dashed=0;verticalLabelPosition=bottom;verticalAlign=top;align=center;html=1;fontSize=12;fontStyle=0;aspect=fixed;shape=mxgraph.aws4.resourceIcon;resIcon=mxgraph.aws4.sns;" vertex="1" parent="1">
          <mxGeometry x="810" y="697" width="78" height="78" as="geometry" />
        </mxCell>
        <mxCell id="BF2qxbi9eYkXB8UrA0qM-15" value="" style="sketch=0;points=[[0,0,0],[0.25,0,0],[0.5,0,0],[0.75,0,0],[1,0,0],[0,1,0],[0.25,1,0],[0.5,1,0],[0.75,1,0],[1,1,0],[0,0.25,0],[0,0.5,0],[0,0.75,0],[1,0.25,0],[1,0.5,0],[1,0.75,0]];outlineConnect=0;fontColor=#232F3E;fillColor=#C925D1;strokeColor=#ffffff;dashed=0;verticalLabelPosition=bottom;verticalAlign=top;align=center;html=1;fontSize=12;fontStyle=0;aspect=fixed;shape=mxgraph.aws4.resourceIcon;resIcon=mxgraph.aws4.dynamodb;" vertex="1" parent="1">
          <mxGeometry x="710" y="430" width="78" height="78" as="geometry" />
        </mxCell>
        <mxCell id="BF2qxbi9eYkXB8UrA0qM-23" style="edgeStyle=orthogonalEdgeStyle;rounded=0;orthogonalLoop=1;jettySize=auto;html=1;" edge="1" parent="1" target="BF2qxbi9eYkXB8UrA0qM-22">
          <mxGeometry relative="1" as="geometry">
            <mxPoint x="1069" y="508" as="sourcePoint" />
          </mxGeometry>
        </mxCell>
        <mxCell id="BF2qxbi9eYkXB8UrA0qM-22" value="" style="sketch=0;points=[[0,0,0],[0.25,0,0],[0.5,0,0],[0.75,0,0],[1,0,0],[0,1,0],[0.25,1,0],[0.5,1,0],[0.75,1,0],[1,1,0],[0,0.25,0],[0,0.5,0],[0,0.75,0],[1,0.25,0],[1,0.5,0],[1,0.75,0]];outlineConnect=0;fontColor=#232F3E;fillColor=#7AA116;strokeColor=#ffffff;dashed=0;verticalLabelPosition=bottom;verticalAlign=top;align=center;html=1;fontSize=12;fontStyle=0;aspect=fixed;shape=mxgraph.aws4.resourceIcon;resIcon=mxgraph.aws4.s3;" vertex="1" parent="1">
          <mxGeometry x="1030" y="560" width="78" height="78" as="geometry" />
        </mxCell>
        <mxCell id="BF2qxbi9eYkXB8UrA0qM-30" style="edgeStyle=orthogonalEdgeStyle;rounded=0;orthogonalLoop=1;jettySize=auto;html=1;" edge="1" parent="1" source="BF2qxbi9eYkXB8UrA0qM-25" target="BF2qxbi9eYkXB8UrA0qM-29">
          <mxGeometry relative="1" as="geometry" />
        </mxCell>
        <mxCell id="BF2qxbi9eYkXB8UrA0qM-25" value="" style="sketch=0;points=[[0,0,0],[0.25,0,0],[0.5,0,0],[0.75,0,0],[1,0,0],[0,1,0],[0.25,1,0],[0.5,1,0],[0.75,1,0],[1,1,0],[0,0.25,0],[0,0.5,0],[0,0.75,0],[1,0.25,0],[1,0.5,0],[1,0.75,0]];outlineConnect=0;fontColor=#232F3E;fillColor=#8C4FFF;strokeColor=#ffffff;dashed=0;verticalLabelPosition=bottom;verticalAlign=top;align=center;html=1;fontSize=12;fontStyle=0;aspect=fixed;shape=mxgraph.aws4.resourceIcon;resIcon=mxgraph.aws4.glue;" vertex="1" parent="1">
          <mxGeometry x="1180" y="560" width="78" height="78" as="geometry" />
        </mxCell>
        <mxCell id="BF2qxbi9eYkXB8UrA0qM-27" style="edgeStyle=orthogonalEdgeStyle;rounded=0;orthogonalLoop=1;jettySize=auto;html=1;entryX=1;entryY=0.5;entryDx=0;entryDy=0;entryPerimeter=0;" edge="1" parent="1" source="BF2qxbi9eYkXB8UrA0qM-25" target="BF2qxbi9eYkXB8UrA0qM-22">
          <mxGeometry relative="1" as="geometry" />
        </mxCell>
        <mxCell id="BF2qxbi9eYkXB8UrA0qM-29" value="" style="sketch=0;points=[[0,0,0],[0.25,0,0],[0.5,0,0],[0.75,0,0],[1,0,0],[0,1,0],[0.25,1,0],[0.5,1,0],[0.75,1,0],[1,1,0],[0,0.25,0],[0,0.5,0],[0,0.75,0],[1,0.25,0],[1,0.5,0],[1,0.75,0]];outlineConnect=0;fontColor=#232F3E;fillColor=#7AA116;strokeColor=#ffffff;dashed=0;verticalLabelPosition=bottom;verticalAlign=top;align=center;html=1;fontSize=12;fontStyle=0;aspect=fixed;shape=mxgraph.aws4.resourceIcon;resIcon=mxgraph.aws4.s3;" vertex="1" parent="1">
          <mxGeometry x="1320" y="560" width="78" height="78" as="geometry" />
        </mxCell>
        <mxCell id="BF2qxbi9eYkXB8UrA0qM-31" value="" style="sketch=0;points=[[0,0,0],[0.25,0,0],[0.5,0,0],[0.75,0,0],[1,0,0],[0,1,0],[0.25,1,0],[0.5,1,0],[0.75,1,0],[1,1,0],[0,0.25,0],[0,0.5,0],[0,0.75,0],[1,0.25,0],[1,0.5,0],[1,0.75,0]];points=[[0,0,0],[0.25,0,0],[0.5,0,0],[0.75,0,0],[1,0,0],[0,1,0],[0.25,1,0],[0.5,1,0],[0.75,1,0],[1,1,0],[0,0.25,0],[0,0.5,0],[0,0.75,0],[1,0.25,0],[1,0.5,0],[1,0.75,0]];outlineConnect=0;fontColor=#232F3E;fillColor=#E7157B;strokeColor=#ffffff;dashed=0;verticalLabelPosition=bottom;verticalAlign=top;align=center;html=1;fontSize=12;fontStyle=0;aspect=fixed;shape=mxgraph.aws4.resourceIcon;resIcon=mxgraph.aws4.cloudwatch_2;" vertex="1" parent="1">
          <mxGeometry x="660" y="697" width="78" height="78" as="geometry" />
        </mxCell>
        <mxCell id="BF2qxbi9eYkXB8UrA0qM-35" style="edgeStyle=orthogonalEdgeStyle;rounded=0;orthogonalLoop=1;jettySize=auto;html=1;" edge="1" parent="1" source="BF2qxbi9eYkXB8UrA0qM-34" target="BF2qxbi9eYkXB8UrA0qM-29">
          <mxGeometry relative="1" as="geometry" />
        </mxCell>
        <mxCell id="BF2qxbi9eYkXB8UrA0qM-34" value="" style="sketch=0;points=[[0,0,0],[0.25,0,0],[0.5,0,0],[0.75,0,0],[1,0,0],[0,1,0],[0.25,1,0],[0.5,1,0],[0.75,1,0],[1,1,0],[0,0.25,0],[0,0.5,0],[0,0.75,0],[1,0.25,0],[1,0.5,0],[1,0.75,0]];outlineConnect=0;fontColor=#232F3E;fillColor=#8C4FFF;strokeColor=#ffffff;dashed=0;verticalLabelPosition=bottom;verticalAlign=top;align=center;html=1;fontSize=12;fontStyle=0;aspect=fixed;shape=mxgraph.aws4.resourceIcon;resIcon=mxgraph.aws4.redshift;" vertex="1" parent="1">
          <mxGeometry x="1470" y="560" width="78" height="78" as="geometry" />
        </mxCell>
        <mxCell id="BF2qxbi9eYkXB8UrA0qM-37" value="API Gateway" style="text;strokeColor=none;align=center;fillColor=none;html=1;verticalAlign=middle;whiteSpace=wrap;rounded=0;" vertex="1" parent="1">
          <mxGeometry x="219" y="360" width="60" height="30" as="geometry" />
        </mxCell>
        <mxCell id="BF2qxbi9eYkXB8UrA0qM-38" value="Lambda" style="text;strokeColor=none;align=center;fillColor=none;html=1;verticalAlign=middle;whiteSpace=wrap;rounded=0;" vertex="1" parent="1">
          <mxGeometry x="399" y="360" width="60" height="30" as="geometry" />
        </mxCell>
        <mxCell id="BF2qxbi9eYkXB8UrA0qM-39" value="Process the payload and send&amp;nbsp; it to a SQS for asynchronous processing" style="text;strokeColor=none;align=center;fillColor=none;html=1;verticalAlign=middle;whiteSpace=wrap;rounded=0;" vertex="1" parent="1">
          <mxGeometry x="480" y="275" width="140" height="85" as="geometry" />
        </mxCell>
        <mxCell id="BF2qxbi9eYkXB8UrA0qM-40" value="SQS" style="text;strokeColor=none;align=center;fillColor=none;html=1;verticalAlign=middle;whiteSpace=wrap;rounded=0;" vertex="1" parent="1">
          <mxGeometry x="399" y="508" width="60" height="30" as="geometry" />
        </mxCell>
        <mxCell id="BF2qxbi9eYkXB8UrA0qM-41" value="DLQ" style="text;strokeColor=none;align=center;fillColor=none;html=1;verticalAlign=middle;whiteSpace=wrap;rounded=0;" vertex="1" parent="1">
          <mxGeometry x="399" y="638" width="60" height="30" as="geometry" />
        </mxCell>
        <mxCell id="BF2qxbi9eYkXB8UrA0qM-42" value="SNS" style="text;strokeColor=none;align=center;fillColor=none;html=1;verticalAlign=middle;whiteSpace=wrap;rounded=0;" vertex="1" parent="1">
          <mxGeometry x="819" y="775" width="60" height="30" as="geometry" />
        </mxCell>
        <mxCell id="BF2qxbi9eYkXB8UrA0qM-43" value="CloudWatch" style="text;strokeColor=none;align=center;fillColor=none;html=1;verticalAlign=middle;whiteSpace=wrap;rounded=0;" vertex="1" parent="1">
          <mxGeometry x="669" y="775" width="60" height="30" as="geometry" />
        </mxCell>
        <mxCell id="BF2qxbi9eYkXB8UrA0qM-44" value="Lambda" style="text;strokeColor=none;align=center;fillColor=none;html=1;verticalAlign=middle;whiteSpace=wrap;rounded=0;" vertex="1" parent="1">
          <mxGeometry x="559" y="508" width="60" height="30" as="geometry" />
        </mxCell>
        <mxCell id="BF2qxbi9eYkXB8UrA0qM-45" value="DynamoDB" style="text;strokeColor=none;align=center;fillColor=none;html=1;verticalAlign=middle;whiteSpace=wrap;rounded=0;" vertex="1" parent="1">
          <mxGeometry x="719" y="508" width="60" height="30" as="geometry" />
        </mxCell>
        <mxCell id="BF2qxbi9eYkXB8UrA0qM-46" value="DynamoDB Stream" style="text;strokeColor=none;align=center;fillColor=none;html=1;verticalAlign=middle;whiteSpace=wrap;rounded=0;" vertex="1" parent="1">
          <mxGeometry x="879" y="478" width="60" height="30" as="geometry" />
        </mxCell>
        <mxCell id="BF2qxbi9eYkXB8UrA0qM-47" value="Lambda" style="text;strokeColor=none;align=center;fillColor=none;html=1;verticalAlign=middle;whiteSpace=wrap;rounded=0;" vertex="1" parent="1">
          <mxGeometry x="1039" y="508" width="60" height="30" as="geometry" />
        </mxCell>
        <mxCell id="BF2qxbi9eYkXB8UrA0qM-48" value="Bucket S3 (Bronze)" style="text;strokeColor=none;align=center;fillColor=none;html=1;verticalAlign=middle;whiteSpace=wrap;rounded=0;" vertex="1" parent="1">
          <mxGeometry x="1039" y="638" width="60" height="30" as="geometry" />
        </mxCell>
        <mxCell id="BF2qxbi9eYkXB8UrA0qM-49" value="Glue Job" style="text;strokeColor=none;align=center;fillColor=none;html=1;verticalAlign=middle;whiteSpace=wrap;rounded=0;" vertex="1" parent="1">
          <mxGeometry x="1189" y="638" width="60" height="30" as="geometry" />
        </mxCell>
        <mxCell id="BF2qxbi9eYkXB8UrA0qM-50" value="Bucket S3 (Silver)" style="text;strokeColor=none;align=center;fillColor=none;html=1;verticalAlign=middle;whiteSpace=wrap;rounded=0;" vertex="1" parent="1">
          <mxGeometry x="1329" y="638" width="60" height="30" as="geometry" />
        </mxCell>
        <mxCell id="BF2qxbi9eYkXB8UrA0qM-51" value="Redshift (Gold)" style="text;strokeColor=none;align=center;fillColor=none;html=1;verticalAlign=middle;whiteSpace=wrap;rounded=0;" vertex="1" parent="1">
          <mxGeometry x="1479" y="638" width="60" height="30" as="geometry" />
        </mxCell>
        <mxCell id="BF2qxbi9eYkXB8UrA0qM-52" value="After a number of retries, failed process messages are sent to a DLQ" style="text;strokeColor=none;align=center;fillColor=none;html=1;verticalAlign=middle;whiteSpace=wrap;rounded=0;" vertex="1" parent="1">
          <mxGeometry x="229" y="556.5" width="140" height="85" as="geometry" />
        </mxCell>
        <mxCell id="BF2qxbi9eYkXB8UrA0qM-54" value="CloudWatch alarms will be setup to monitor erros and the DLQ. The alerts will be sent to SNS, that could be a trigger to send alerts (email, sms, push)" style="text;strokeColor=none;align=center;fillColor=none;html=1;verticalAlign=middle;whiteSpace=wrap;rounded=0;" vertex="1" parent="1">
          <mxGeometry x="660" y="805" width="230" height="85" as="geometry" />
        </mxCell>
        <mxCell id="BF2qxbi9eYkXB8UrA0qM-55" style="edgeStyle=orthogonalEdgeStyle;rounded=0;orthogonalLoop=1;jettySize=auto;html=1;entryX=0;entryY=0.5;entryDx=0;entryDy=0;entryPerimeter=0;" edge="1" parent="1" source="BF2qxbi9eYkXB8UrA0qM-31" target="BF2qxbi9eYkXB8UrA0qM-13">
          <mxGeometry relative="1" as="geometry" />
        </mxCell>
        <mxCell id="BF2qxbi9eYkXB8UrA0qM-56" value="The sencond lambda will save the messages into a DynamoDB" style="text;strokeColor=none;align=center;fillColor=none;html=1;verticalAlign=middle;whiteSpace=wrap;rounded=0;" vertex="1" parent="1">
          <mxGeometry x="519" y="530" width="140" height="85" as="geometry" />
        </mxCell>
        <mxCell id="BF2qxbi9eYkXB8UrA0qM-58" value="Process and clean the data, saving structured data on another bucket" style="text;strokeColor=none;align=center;fillColor=none;html=1;verticalAlign=middle;whiteSpace=wrap;rounded=0;" vertex="1" parent="1">
          <mxGeometry x="1149" y="650" width="140" height="85" as="geometry" />
        </mxCell>
        <mxCell id="BF2qxbi9eYkXB8UrA0qM-59" value="Using COPY to save the data into Redshift, for easy access for analytics" style="text;strokeColor=none;align=center;fillColor=none;html=1;verticalAlign=middle;whiteSpace=wrap;rounded=0;" vertex="1" parent="1">
          <mxGeometry x="1439" y="660" width="140" height="85" as="geometry" />
        </mxCell>
        <mxCell id="BF2qxbi9eYkXB8UrA0qM-61" style="edgeStyle=orthogonalEdgeStyle;rounded=0;orthogonalLoop=1;jettySize=auto;html=1;" edge="1" parent="1" source="BF2qxbi9eYkXB8UrA0qM-60" target="BF2qxbi9eYkXB8UrA0qM-15">
          <mxGeometry relative="1" as="geometry" />
        </mxCell>
        <mxCell id="BF2qxbi9eYkXB8UrA0qM-60" value="" style="sketch=0;points=[[0,0,0],[0.25,0,0],[0.5,0,0],[0.75,0,0],[1,0,0],[0,1,0],[0.25,1,0],[0.5,1,0],[0.75,1,0],[1,1,0],[0,0.25,0],[0,0.5,0],[0,0.75,0],[1,0.25,0],[1,0.5,0],[1,0.75,0]];outlineConnect=0;fontColor=#232F3E;fillColor=#ED7100;strokeColor=#ffffff;dashed=0;verticalLabelPosition=bottom;verticalAlign=top;align=center;html=1;fontSize=12;fontStyle=0;aspect=fixed;shape=mxgraph.aws4.resourceIcon;resIcon=mxgraph.aws4.lambda;" vertex="1" parent="1">
          <mxGeometry x="1030" y="430" width="78" height="78" as="geometry" />
        </mxCell>
        <mxCell id="BF2qxbi9eYkXB8UrA0qM-62" value="This lambda has the dynamodb stream as a trigger, and save the events on a s3 bucket" style="text;strokeColor=none;align=center;fillColor=none;html=1;verticalAlign=middle;whiteSpace=wrap;rounded=0;" vertex="1" parent="1">
          <mxGeometry x="1118" y="430" width="140" height="85" as="geometry" />
        </mxCell>
      </root>
    </mxGraphModel>
  </diagram>
</mxfile>
